<svg width="511" height="511" viewBox="0 0 511 511" fill="none" xmlns="http://www.w3.org/2000/svg">
<rect width="511" height="511" rx="100" fill="white"/>
<path d="M358.954 305.025L350.012 320.519L266.022 271.995L265.298 271.589L264.558 272.009C258.805 275.372 251.268 275.4 245.413 271.995L244.688 271.589L159.974 320.519L151.031 305.025L234.992 256.53L235.716 256.124V255.284C235.745 248.457 239.427 242.095 245.326 238.645L246.05 238.225V140.379H263.935V238.239L264.66 238.645C270.573 242.109 274.255 248.472 274.255 255.284V256.124L358.954 305.025Z" fill="url(#paint0_radial_2539_31)"/>
<path d="M358.954 305.025L350.012 320.519L266.022 271.995L265.298 271.589L264.558 272.009C258.805 275.372 251.268 275.4 245.413 271.995L244.688 271.589L159.974 320.519L151.031 305.025L234.992 256.53L235.716 256.124V255.284C235.745 248.457 239.427 242.095 245.326 238.645L246.05 238.225V140.379H263.935V238.239L264.66 238.645C270.573 242.109 274.255 248.472 274.255 255.284V256.124L358.954 305.025Z" fill="url(#paint1_radial_2539_31)"/>
<path d="M395.434 314.272L394.724 313.852V196.846L395.434 196.426C401.42 192.904 405 186.686 405 179.787C405 169.163 396.347 160.511 385.724 160.511C382.39 160.511 379.1 161.395 376.216 163.047L375.491 163.468L374.767 163.047L274.284 105.015V104.189C274.226 93.6091 265.573 85 255.007 85C244.442 85 235.803 93.6091 235.745 104.175V105.015L235.021 105.421L134.523 163.468L133.798 163.062C130.871 161.395 127.581 160.511 124.276 160.511C113.653 160.511 105 169.163 105 179.787C105 186.599 108.667 192.976 114.566 196.426L115.29 196.846V313.852L114.58 314.272C108.58 317.794 105 324.012 105 330.91C105 341.534 113.653 350.187 124.276 350.187C127.639 350.187 130.958 349.288 133.871 347.607L134.596 347.187L135.32 347.607L235.716 405.595V406.421C235.789 417.002 244.427 425.596 254.993 425.596C265.558 425.596 274.197 417.002 274.255 406.421V405.595L274.979 405.175L375.404 347.187L376.129 347.607C379.042 349.288 382.361 350.187 385.724 350.187C396.347 350.187 405 341.534 405 330.91C405 324.099 401.333 317.721 395.434 314.272ZM376.868 313.736L376.158 314.156C370.216 317.576 366.52 323.954 366.505 330.794V331.621L365.781 332.041L279.487 381.898L315.329 319.779L299.835 310.822L255.007 388.493L210.222 310.866L194.743 319.794L230.586 381.913L143.596 331.65V330.823C143.567 323.997 139.871 317.62 133.943 314.185L133.219 313.765V213.151L169.061 275.241L184.54 266.299L139.741 188.672H229.325V170.772H157.64L244.659 120.523L245.398 120.929C248.34 122.64 251.674 123.538 255.036 123.538C258.399 123.538 261.674 122.668 264.689 120.929L265.414 120.523L266.124 120.929L352.432 170.772H280.748V188.672H370.332L325.547 266.299L341.026 275.241L376.868 213.108V313.736Z" fill="url(#paint2_radial_2539_31)"/>
<path d="M395.434 314.272L394.724 313.852V196.846L395.434 196.426C401.42 192.904 405 186.686 405 179.787C405 169.163 396.347 160.511 385.724 160.511C382.39 160.511 379.1 161.395 376.216 163.047L375.491 163.468L374.767 163.047L274.284 105.015V104.189C274.226 93.6091 265.573 85 255.007 85C244.442 85 235.803 93.6091 235.745 104.175V105.015L235.021 105.421L134.523 163.468L133.798 163.062C130.871 161.395 127.581 160.511 124.276 160.511C113.653 160.511 105 169.163 105 179.787C105 186.599 108.667 192.976 114.566 196.426L115.29 196.846V313.852L114.58 314.272C108.58 317.794 105 324.012 105 330.91C105 341.534 113.653 350.187 124.276 350.187C127.639 350.187 130.958 349.288 133.871 347.607L134.596 347.187L135.32 347.607L235.716 405.595V406.421C235.789 417.002 244.427 425.596 254.993 425.596C265.558 425.596 274.197 417.002 274.255 406.421V405.595L274.979 405.175L375.404 347.187L376.129 347.607C379.042 349.288 382.361 350.187 385.724 350.187C396.347 350.187 405 341.534 405 330.91C405 324.099 401.333 317.721 395.434 314.272ZM376.868 313.736L376.158 314.156C370.216 317.576 366.52 323.954 366.505 330.794V331.621L365.781 332.041L279.487 381.898L315.329 319.779L299.835 310.822L255.007 388.493L210.222 310.866L194.743 319.794L230.586 381.913L143.596 331.65V330.823C143.567 323.997 139.871 317.62 133.943 314.185L133.219 313.765V213.151L169.061 275.241L184.54 266.299L139.741 188.672H229.325V170.772H157.64L244.659 120.523L245.398 120.929C248.34 122.64 251.674 123.538 255.036 123.538C258.399 123.538 261.674 122.668 264.689 120.929L265.414 120.523L266.124 120.929L352.432 170.772H280.748V188.672H370.332L325.547 266.299L341.026 275.241L376.868 213.108V313.736Z" fill="url(#paint3_radial_2539_31)"/>
<defs>
<radialGradient id="paint0_radial_2539_31" cx="0" cy="0" r="1" gradientTransform="matrix(329.041 138.836 31.8332 1076.87 108.928 166.921)" gradientUnits="userSpaceOnUse">
<stop stop-color="#09606D"/>
<stop offset="1" stop-color="#D2ECF2"/>
</radialGradient>
<radialGradient id="paint1_radial_2539_31" cx="0" cy="0" r="1" gradientUnits="userSpaceOnUse" gradientTransform="translate(265.877 406.755) rotate(-91.1853) scale(210.2 185.146)">
<stop stop-color="#00364A"/>
<stop offset="1" stop-color="#00364A" stop-opacity="0"/>
</radialGradient>
<radialGradient id="paint2_radial_2539_31" cx="0" cy="0" r="1" gradientTransform="matrix(329.041 138.836 31.8332 1076.87 108.928 166.921)" gradientUnits="userSpaceOnUse">
<stop stop-color="#09606D"/>
<stop offset="1" stop-color="#D2ECF2"/>
</radialGradient>
<radialGradient id="paint3_radial_2539_31" cx="0" cy="0" r="1" gradientUnits="userSpaceOnUse" gradientTransform="translate(265.877 406.755) rotate(-91.1853) scale(210.2 185.146)">
<stop stop-color="#00364A"/>
<stop offset="1" stop-color="#00364A" stop-opacity="0"/>
</radialGradient>
</defs>
</svg>
